<?xml version="1.0" encoding="utf-8"?>
<!-- Generator: Adobe Illustrator 24.1.1, SVG Export Plug-In . SVG Version: 6.00 Build 0)  -->
<svg version="1.1" id="Layer_1" xmlns="http://www.w3.org/2000/svg" xmlns:xlink="http://www.w3.org/1999/xlink" x="0px" y="0px"
	 viewBox="0 0 1920 1920" style="enable-background:new 0 0 1920 1920;" xml:space="preserve">
<style type="text/css">
	.st0{display:none;fill:#38B660;}
	.st1{fill:#999999;}
	.st2{fill:#FFFFFF;}
	.st3{fill:url(#SVGID_1_);}
	.st4{fill:url(#SVGID_2_);}
	.st5{display:none;}
	.st6{display:inline;fill:#FFFFFF;}
	.st7{display:inline;}
	.st8{fill:#88C65B;}
	.st9{fill:#221F1F;}
	.st10{fill:#231F20;}
</style>
<polygon class="st0" points="1367.58,1064.55 1336.13,1071.09 1319.09,1074.63 1302.69,1059.56 1111.2,883.56 1272.23,566.84 
	1287.22,537.34 1302.22,507.85 1269.83,514.59 1237.43,521.33 713.01,630.43 702.72,632.57 692.43,634.72 690.37,645.02 
	688.32,655.33 627.42,960.73 623.03,982.74 618.64,1004.75 640.85,1001.58 663.07,998.4 672.61,997.04 603.76,1285.25 
	578.43,1391.26 553.1,1497.28 607.64,1402.91 662.17,1308.53 871.8,945.79 876.1,949.55 1076.9,1124.98 873.37,1167.29 
	865.67,1168.89 862.28,1175.98 786.59,1333.83 772.71,1362.79 804.15,1356.26 926.07,1330.91 913.54,1357.03 899.66,1385.99 
	931.11,1379.45 1255.38,1311.98 1263.07,1310.38 1266.47,1303.3 1298.56,1236.36 1312.45,1207.39 1297.61,1210.48 1353.69,1093.52 
	"/>
<g>
	<polygon class="st1" points="1596.21,1086.55 1558.38,1051.78 1238.75,758.01 1507.14,230.11 1532.04,181.15 1553.97,138 
		1506.59,147.86 1452.81,159.05 582.24,340.17 565.16,343.73 550.11,346.86 547.1,361.93 543.69,379.04 442.59,886.03 
		435.31,922.56 428.89,954.76 461.39,950.11 498.27,944.85 518.67,941.93 403.29,1424.86 361.25,1600.85 324.2,1755.92 
		403.98,1617.87 494.51,1461.21 844.4,855.74 854.42,864.49 1218.55,1182.63 1228.43,1191.26 1237.14,1198.87 1248.46,1196.51 
		1261.3,1193.84 1534.92,1136.88 1585.22,1126.41 1629.55,1117.18 	"/>
	<g>
		<polygon points="566.55,898.29 474.68,911.42 581.12,377.61 1487.12,189.12 1193.76,766.13 1552.64,1095.99 1247.45,1159.51 
			870.21,829.92 1045.76,526.52 787.21,575.62 773.33,619.45 960.39,582.21 417.7,1521.31 		"/>
		<path class="st2" d="M1462.92,207.62l-285.45,561.45l347.34,319.24l-273.62,56.96L887.06,827.13L1071.6,508.2l-294.59,55.93
			l-23,72.61l180.39-35.92l-482.85,835.56L583.88,882.5l-92.63,13.23l101.1-506.98L1462.92,207.62 M1511.32,170.61l-53.78,11.19
			L586.98,362.93l-17.08,3.55l-3.41,17.11l-101.1,506.98l-7.29,36.54l36.88-5.27l54.24-7.75L425.9,1430.26l-42.05,175.99
			l90.53-156.66l482.85-835.56l29.15-50.44l-57.13,11.38l-136.62,27.2l4.77-15.06l222.52-42.25L864.23,813.92l-10.87,18.79
			l16.35,14.28l364.13,318.14l9.88,8.63l12.85-2.67l273.62-56.96l50.3-10.47l-37.83-34.77l-332.61-305.7l276.38-543.62
			L1511.32,170.61L1511.32,170.61z"/>
	</g>
	<linearGradient id="SVGID_1_" gradientUnits="userSpaceOnUse" x1="698.5926" y1="1289.571" x2="698.5926" y2="475.1775">
		<stop  offset="0" style="stop-color:#FFFFFF"/>
		<stop  offset="0.0518" style="stop-color:#DEDEDE"/>
		<stop  offset="0.1317" style="stop-color:#B2B2B2"/>
		<stop  offset="0.2176" style="stop-color:#8B8B8B"/>
		<stop  offset="0.3083" style="stop-color:#6A6A6A"/>
		<stop  offset="0.4054" style="stop-color:#4F4F4F"/>
		<stop  offset="0.5111" style="stop-color:#3B3B3B"/>
		<stop  offset="0.6296" style="stop-color:#2C2C2C"/>
		<stop  offset="0.7717" style="stop-color:#242424"/>
		<stop  offset="1" style="stop-color:#212121"/>
	</linearGradient>
	<polygon class="st3" points="727.24,749.86 509.84,1289.57 887.35,633.24 715.72,669.25 752.89,541.54 683.15,475.18 
		620.43,764.98 	"/>
	<linearGradient id="SVGID_2_" gradientUnits="userSpaceOnUse" x1="1482.8177" y1="659.364" x2="615.392" y2="659.364">
		<stop  offset="0" style="stop-color:#FFFFFF"/>
		<stop  offset="0.022" style="stop-color:#F0F0F0"/>
		<stop  offset="0.1" style="stop-color:#BEBEBF"/>
		<stop  offset="0.1771" style="stop-color:#959596"/>
		<stop  offset="0.252" style="stop-color:#747476"/>
		<stop  offset="0.3239" style="stop-color:#5E5E5F"/>
		<stop  offset="0.3917" style="stop-color:#505052"/>
		<stop  offset="0.4509" style="stop-color:#4B4B4D"/>
		<stop  offset="0.5038" style="stop-color:#39393A"/>
		<stop  offset="0.5681" style="stop-color:#2C2C2C"/>
		<stop  offset="0.6457" style="stop-color:#232324"/>
		<stop  offset="0.7725" style="stop-color:#212121"/>
		<stop  offset="0.8193" style="stop-color:#252525"/>
		<stop  offset="0.8621" style="stop-color:#303030"/>
		<stop  offset="0.9033" style="stop-color:#424242"/>
		<stop  offset="0.9435" style="stop-color:#5C5C5C"/>
		<stop  offset="0.9827" style="stop-color:#7E7E7E"/>
		<stop  offset="1" style="stop-color:#8F8F8F"/>
	</linearGradient>
	<polygon class="st4" points="1146.84,773.45 1414.96,243.66 615.39,410.7 683.14,475.17 1282.95,359.45 1033.41,798.02 
		1316.48,1049.21 1482.82,1075.06 	"/>
</g>
<g class="st5">
	<polygon class="st6" points="1262.44,1223.65 799.68,1319.85 875.36,1162 1338.12,1065.8 	"/>
	<polygon class="st6" points="1250.9,1275.58 926.63,1343.05 958.73,1276.11 1283,1208.64 	"/>
	<g class="st7">
		<path class="st8" d="M1013.5,1272.43l-3.97,11.42l-23.39,4.84l-1.94,5.58l21.25-4.4l-3.96,11.42l-21.25,4.4l-1.96,5.65l23.97-4.96
			l-3.97,11.42l-39,8.08l15.8-45.47L1013.5,1272.43z"/>
		<path class="st8" d="M1032.33,1268.54l9.83,19.64l8.11-23.36l13.61-2.82l-15.8,45.47l-12.57,2.6l-9.81-19.52l-8.07,23.22
			l-13.67,2.83l15.8-45.47L1032.33,1268.54z"/>
		<path class="st8" d="M1108.85,1252.7l-3.97,11.42l-23.39,4.84l-1.94,5.58l21.25-4.4l-3.97,11.42l-21.25,4.4l-1.96,5.64l23.97-4.96
			l-3.97,11.42l-39,8.08l15.79-45.47L1108.85,1252.7z"/>
		<path class="st8" d="M1125.46,1291.47l-1.34-10.68l-5.64,1.17l-4.1,11.8l-15.03,3.11l15.8-45.47l21.96-4.55
			c12.31-2.55,17.32,1.89,13.71,12.27c-2.3,6.61-6.54,12.07-12.19,15.89l3.8,12.94L1125.46,1291.47z M1122.44,1270.54l6.93-1.44
			c3.24-0.67,5.82-3.07,7.04-6.57c1.17-3.37-0.03-4.93-3.27-4.26l-6.93,1.43L1122.44,1270.54z"/>
		<path class="st8" d="M1183.89,1257.17l12.89-2.67l-6.51,18.75c-6.23,4.42-15.44,8.62-21.92,9.96
			c-14.25,2.95-21.19-4.76-16.51-18.26c4.67-13.43,18.82-25.45,33.66-28.52c7.06-1.46,13.82-0.34,17.2,2.94l-12.07,12.07
			c-2.03-2.29-5.78-3.26-9.54-2.48c-5.83,1.21-11.68,6.63-13.82,12.8c-2.19,6.29,0.58,9.93,6.47,8.71c1.56-0.32,3.96-1.36,6.48-2.73
			L1183.89,1257.17z"/>
		<path class="st8" d="M1226.82,1257.38l-4.91,14.14l-15.03,3.11l4.8-13.82l-5.59-28.22l14.96-3.1l3.05,15.62l14.89-19.34l14.97-3.1
			L1226.82,1257.38z"/>
	</g>
	<g class="st7">
		<path d="M1006.01,1239.05l-13.47,18.52l-29.9,6.2l94.82-129.74l29.91-6.2l-20.07,114.24l-29.9,6.2l2.93-16.33L1006.01,1239.05z
			 M1047.08,1199.08l4.81-24.59l-19.76,27.68L1047.08,1199.08z"/>
		<path d="M1221.97,1099.91l-81.11,95.45l40.06-8.31l-16.4,34.85l-89.71,18.6l81.71-95.57l-40.67,8.43l16.4-34.85L1221.97,1099.91z"
			/>
		<path d="M1311.63,1081.32l-16.4,34.85l-52.33,10.85l-4.12,8.72l52.33-10.85l-16.4,34.85l-52.32,10.85l-4.12,8.72l52.33-10.85
			l-16.4,34.85l-82.23,17.05l57.44-121.99L1311.63,1081.32z"/>
		<polygon points="904.23,1191.85 899.18,1201.21 922.55,1196.77 852.85,1300.9 876.18,1231.78 856.09,1235.1 886.83,1169.85 
			994.16,1146.96 951.78,1219.65 992.46,1257.59 958.79,1264.6 915.61,1226.87 942.26,1184.73 		"/>
	</g>
	<g class="st7">
		<path class="st9" d="M1316.4,1080.88v0.93h-1.27v4.36h-0.88v-4.36h-1.26v-0.93H1316.4z M1318.01,1080.88l1.33,3.37l1.33-3.37h1.02
			v5.29h-0.8v-3.74l-1.26,3.2h-0.58l-1.25-3.2v3.74h-0.81v-5.29H1318.01z"/>
	</g>
	<g class="st7">
		<g>
			<g>
				<g id="XMLID_1_">
					<g>
						<path class="st10" d="M1257.19,1221.84c2.05,3.43,2.11,7.69,0.18,11.19c-0.95,1.72-2.33,3.16-3.98,4.14
							c-0.83,0.49-1.75,0.89-2.7,1.16c-2.88,0.83-5.88,0.46-8.49-0.98c-1.72-0.95-3.16-2.33-4.14-4.01
							c-2.05-3.4-2.11-7.69-0.18-11.15c1.44-2.6,3.83-4.47,6.68-5.3c2.88-0.83,5.88-0.49,8.49,0.98
							C1254.77,1218.8,1256.18,1220.18,1257.19,1221.84z M1256.06,1232.29c1.69-3,1.62-6.71-0.15-9.65
							c-0.86-1.47-2.11-2.67-3.59-3.49c-3.13-1.72-6.8-1.53-9.65,0.18c-1.41,0.83-2.64,2.05-3.46,3.59c-1.69,3-1.62,6.71,0.15,9.65
							c0.86,1.44,2.08,2.64,3.59,3.46c2.24,1.26,4.87,1.56,7.32,0.86C1252.75,1236.18,1254.8,1234.52,1256.06,1232.29z"/>
						<path class="st2" d="M1255.9,1222.63c1.78,2.94,1.84,6.65,0.15,9.65c-1.26,2.24-3.31,3.89-5.79,4.6
							c-2.45,0.7-5.09,0.4-7.32-0.86c-1.5-0.83-2.73-2.02-3.59-3.46c-1.78-2.94-1.84-6.65-0.15-9.65c0.83-1.53,2.05-2.76,3.46-3.59
							c2.85-1.72,6.53-1.9,9.65-0.18C1253.79,1219.97,1255.04,1221.16,1255.9,1222.63z"/>
					</g>
					<g>
					</g>
				</g>
			</g>
			<g>
				<g>
					<path class="st10" d="M1246.43,1227c-0.35,0.62-0.12,1.42,0.5,1.76c0.63,0.35,1.42,0.12,1.76-0.5c0.23-0.42,0.21-0.91-0.02-1.3
						c-0.11-0.19-0.28-0.35-0.48-0.47C1247.57,1226.15,1246.78,1226.37,1246.43,1227z"/>
				</g>
				<g>
					<path class="st10" d="M1249.09,1228.47c-0.13,0.24-0.31,0.43-0.54,0.59l-0.13,0.09l3.47,5.79l0.14-0.09
						c1.23-0.76,2.25-1.83,2.96-3.1c0.7-1.27,1.07-2.7,1.07-4.15l0-0.17l-6.74,0.11l-0.01,0.16
						C1249.29,1227.98,1249.22,1228.24,1249.09,1228.47z"/>
				</g>
				<g>
					<path class="st10" d="M1246.63,1229.09c-0.46-0.29-0.76-0.79-0.8-1.33l-0.01-0.15l-6.74,0.11l0.01,0.17
						c0.09,2.97,1.68,5.63,4.26,7.11l0.14,0.08l3.28-5.89L1246.63,1229.09z"/>
				</g>
				<g>
					<path class="st10" d="M1246.63,1226.16l0.14-0.07c0.48-0.25,1.06-0.26,1.56-0.02l0.14,0.07l3.28-5.89l-0.15-0.08
						c-2.61-1.41-5.71-1.36-8.28,0.13l-0.14,0.08L1246.63,1226.16z"/>
				</g>
			</g>
		</g>
	</g>
</g>
</svg>
